<svg width="16" height="11" viewBox="0 0 16 11" fill="none" xmlns="http://www.w3.org/2000/svg">
<path d="M8 10.25C2.76587 10.25 0.170875 5.687 0.063 5.49288C-0.021 5.34175 -0.021 5.15812 0.063 5.007C0.170875 4.813 2.76587 0.25 8 0.25C13.2341 0.25 15.8291 4.813 15.937 5.00712C16.021 5.15825 16.021 5.34188 15.937 5.493C15.8291 5.687 13.2341 10.25 8 10.25ZM1.08837 5.24925C1.68313 6.15062 4.01825 9.25 8 9.25C11.9944 9.25 14.3191 6.15312 14.9116 5.25075C14.3169 4.34937 11.9818 1.25 8 1.25C4.00562 1.25 1.68087 4.34688 1.08837 5.24925ZM8 8.25C6.34575 8.25 5 6.90425 5 5.25C5 3.59575 6.34575 2.25 8 2.25C9.65425 2.25 11 3.59575 11 5.25C11 6.90425 9.65425 8.25 8 8.25ZM8 3.25C6.89725 3.25 6 4.14725 6 5.25C6 6.35275 6.89725 7.25 8 7.25C9.10275 7.25 10 6.35275 10 5.25C10 4.14725 9.10275 3.25 8 3.25Z" fill="#6579A8"/>
</svg>
