<svg width="661" height="103" viewBox="0 0 661 103" fill="none" xmlns="http://www.w3.org/2000/svg">
<g opacity="0.5">
<mask id="mask0_6101_480" style="mask-type:alpha" maskUnits="userSpaceOnUse" x="115" y="0" width="546" height="103">
<rect x="115.5" y="0.5" width="545" height="102" fill="#F8F9FF" stroke="black"/>
</mask>
<g mask="url(#mask0_6101_480)">
<path d="M845.101 -70L628.433 173.873" stroke="#83EB91" stroke-linecap="round" stroke-linejoin="round"/>
<path d="M839.707 -70L623.038 173.873" stroke="#83EB91" stroke-linecap="round" stroke-linejoin="round"/>
<path d="M834.312 -70L617.644 173.873" stroke="#83EB91" stroke-linecap="round" stroke-linejoin="round"/>
<path d="M828.918 -70L612.25 173.873" stroke="#83EB91" stroke-linecap="round" stroke-linejoin="round"/>
<path d="M823.524 -70L606.856 173.873" stroke="#83EB91" stroke-linecap="round" stroke-linejoin="round"/>
<path d="M818.13 -70L601.462 173.873" stroke="#83EB91" stroke-linecap="round" stroke-linejoin="round"/>
<path d="M812.736 -70L596.067 173.873" stroke="#83EB91" stroke-linecap="round" stroke-linejoin="round"/>
<path d="M807.341 -70L590.673 173.873" stroke="#83EB91" stroke-linecap="round" stroke-linejoin="round"/>
<path d="M801.947 -70L585.279 173.873" stroke="#83EB91" stroke-linecap="round" stroke-linejoin="round"/>
<path d="M796.553 -70L579.885 173.873" stroke="#83EB91" stroke-linecap="round" stroke-linejoin="round"/>
<path d="M791.159 -70L574.49 173.873" stroke="#83EB91" stroke-linecap="round" stroke-linejoin="round"/>
<path d="M785.764 -70L569.096 173.873" stroke="#83EB91" stroke-linecap="round" stroke-linejoin="round"/>
<path d="M780.37 -70L563.702 173.873" stroke="#83EB91" stroke-linecap="round" stroke-linejoin="round"/>
<path d="M774.976 -70L558.308 173.873" stroke="#83EB91" stroke-linecap="round" stroke-linejoin="round"/>
<path d="M769.582 -70L552.913 173.873" stroke="#83EB91" stroke-linecap="round" stroke-linejoin="round"/>
<path d="M764.187 -70L547.519 173.873" stroke="#83EB91" stroke-linecap="round" stroke-linejoin="round"/>
<path d="M758.793 -70L542.125 173.873" stroke="#83EB91" stroke-linecap="round" stroke-linejoin="round"/>
<path d="M753.399 -70L536.731 173.873" stroke="#83EB91" stroke-linecap="round" stroke-linejoin="round"/>
<path d="M748.005 -70L531.337 173.873" stroke="#83EB91" stroke-linecap="round" stroke-linejoin="round"/>
<path d="M742.611 -70L525.942 173.873" stroke="#83EB91" stroke-linecap="round" stroke-linejoin="round"/>
<path d="M737.216 -70L520.548 173.873" stroke="#83EB91" stroke-linecap="round" stroke-linejoin="round"/>
<path d="M731.822 -70L515.154 173.873" stroke="#83EB91" stroke-linecap="round" stroke-linejoin="round"/>
<path d="M726.428 -70L509.76 173.873" stroke="#83EB91" stroke-linecap="round" stroke-linejoin="round"/>
<path d="M721.034 -70L504.365 173.873" stroke="#83EB91" stroke-linecap="round" stroke-linejoin="round"/>
<path d="M715.639 -70L498.971 173.873" stroke="#83EB91" stroke-linecap="round" stroke-linejoin="round"/>
<path d="M710.245 -70L493.577 173.873" stroke="#83EB91" stroke-linecap="round" stroke-linejoin="round"/>
<path d="M704.851 -70L488.183 173.873" stroke="#83EB91" stroke-linecap="round" stroke-linejoin="round"/>
<path d="M699.457 -70L482.788 173.873" stroke="#83EB91" stroke-linecap="round" stroke-linejoin="round"/>
<path d="M694.062 -70L477.394 173.873" stroke="#83EB91" stroke-linecap="round" stroke-linejoin="round"/>
<path d="M688.668 -70L472 173.873" stroke="#83EB91" stroke-linecap="round" stroke-linejoin="round"/>
<path d="M683.274 -70L466.606 173.873" stroke="#83EB91" stroke-linecap="round" stroke-linejoin="round"/>
<path d="M677.88 -70L461.212 173.873" stroke="#83EB91" stroke-linecap="round" stroke-linejoin="round"/>
<path d="M672.486 -70L455.817 173.873" stroke="#83EB91" stroke-linecap="round" stroke-linejoin="round"/>
<path d="M667.091 -70L450.423 173.873" stroke="#83EB91" stroke-linecap="round" stroke-linejoin="round"/>
<path d="M661.697 -70L445.029 173.873" stroke="#83EB91" stroke-linecap="round" stroke-linejoin="round"/>
<path d="M656.303 -70L439.635 173.873" stroke="#83EB91" stroke-linecap="round" stroke-linejoin="round"/>
<path d="M650.909 -70L434.24 173.873" stroke="#83EB91" stroke-linecap="round" stroke-linejoin="round"/>
<path d="M645.514 -70L428.846 173.873" stroke="#83EB91" stroke-linecap="round" stroke-linejoin="round"/>
<path d="M640.12 -70L423.452 173.873" stroke="#83EB91" stroke-linecap="round" stroke-linejoin="round"/>
<path d="M634.726 -70L418.058 173.873" stroke="#83EB91" stroke-linecap="round" stroke-linejoin="round"/>
<path d="M629.332 -70L412.663 173.873" stroke="#83EB91" stroke-linecap="round" stroke-linejoin="round"/>
<path d="M623.937 -70L407.269 173.873" stroke="#83EB91" stroke-linecap="round" stroke-linejoin="round"/>
<path d="M618.543 -70L401.875 173.873" stroke="#83EB91" stroke-linecap="round" stroke-linejoin="round"/>
<path d="M613.149 -70L396.481 173.873" stroke="#83EB91" stroke-linecap="round" stroke-linejoin="round"/>
<path d="M607.755 -70L391.087 173.873" stroke="#83EB91" stroke-linecap="round" stroke-linejoin="round"/>
<path d="M602.361 -70L385.692 173.873" stroke="#83EB91" stroke-linecap="round" stroke-linejoin="round"/>
<path d="M596.966 -70L380.298 173.873" stroke="#83EB91" stroke-linecap="round" stroke-linejoin="round"/>
<path d="M591.572 -70L374.904 173.873" stroke="#83EB91" stroke-linecap="round" stroke-linejoin="round"/>
<path d="M586.178 -70L369.51 173.873" stroke="#83EB91" stroke-linecap="round" stroke-linejoin="round"/>
<path d="M580.784 -70L364.115 173.873" stroke="#83EB91" stroke-linecap="round" stroke-linejoin="round"/>
<path d="M575.389 -70L358.721 173.873" stroke="#83EB91" stroke-linecap="round" stroke-linejoin="round"/>
<path d="M569.995 -70L353.327 173.873" stroke="#83EB91" stroke-linecap="round" stroke-linejoin="round"/>
<path d="M564.601 -70L347.933 173.873" stroke="#83EB91" stroke-linecap="round" stroke-linejoin="round"/>
<path d="M559.207 -70L342.538 173.873" stroke="#83EB91" stroke-linecap="round" stroke-linejoin="round"/>
<path d="M553.812 -70L337.144 173.873" stroke="#83EB91" stroke-linecap="round" stroke-linejoin="round"/>
<path d="M548.418 -70L331.75 173.873" stroke="#83EB91" stroke-linecap="round" stroke-linejoin="round"/>
<path d="M543.024 -70L326.356 173.873" stroke="#83EB91" stroke-linecap="round" stroke-linejoin="round"/>
<path d="M537.63 -70L320.962 173.873" stroke="#83EB91" stroke-linecap="round" stroke-linejoin="round"/>
<path d="M532.236 -70L315.567 173.873" stroke="#83EB91" stroke-linecap="round" stroke-linejoin="round"/>
<path d="M526.841 -70L310.173 173.873" stroke="#83EB91" stroke-linecap="round" stroke-linejoin="round"/>
<path d="M521.447 -70L304.779 173.873" stroke="#83EB91" stroke-linecap="round" stroke-linejoin="round"/>
<path d="M516.053 -70L299.385 173.873" stroke="#83EB91" stroke-linecap="round" stroke-linejoin="round"/>
<path d="M510.659 -70L293.99 173.873" stroke="#83EB91" stroke-linecap="round" stroke-linejoin="round"/>
<path d="M505.264 -70L288.596 173.873" stroke="#83EB91" stroke-linecap="round" stroke-linejoin="round"/>
<path d="M499.87 -70L283.202 173.873" stroke="#83EB91" stroke-linecap="round" stroke-linejoin="round"/>
<path d="M494.476 -70L277.808 173.873" stroke="#83EB91" stroke-linecap="round" stroke-linejoin="round"/>
<path d="M489.082 -70L272.413 173.873" stroke="#83EB91" stroke-linecap="round" stroke-linejoin="round"/>
<path d="M483.687 -70L267.019 173.873" stroke="#83EB91" stroke-linecap="round" stroke-linejoin="round"/>
<path d="M478.293 -70L261.625 173.873" stroke="#83EB91" stroke-linecap="round" stroke-linejoin="round"/>
<path d="M472.899 -70L256.231 173.873" stroke="#83EB91" stroke-linecap="round" stroke-linejoin="round"/>
<path d="M467.505 -70L250.837 173.873" stroke="#83EB91" stroke-linecap="round" stroke-linejoin="round"/>
<path d="M462.111 -70L245.442 173.873" stroke="#83EB91" stroke-linecap="round" stroke-linejoin="round"/>
<path d="M456.716 -70L240.048 173.873" stroke="#83EB91" stroke-linecap="round" stroke-linejoin="round"/>
<path d="M451.322 -70L234.654 173.873" stroke="#83EB91" stroke-linecap="round" stroke-linejoin="round"/>
<path d="M445.928 -70L229.26 173.873" stroke="#83EB91" stroke-linecap="round" stroke-linejoin="round"/>
<path d="M440.534 -70L223.865 173.873" stroke="#83EB91" stroke-linecap="round" stroke-linejoin="round"/>
</g>
</g>
<g opacity="0.5">
<mask id="mask1_6101_480" style="mask-type:alpha" maskUnits="userSpaceOnUse" x="0" y="0" width="546" height="103">
<rect x="545.5" y="102.5" width="545" height="102" transform="rotate(-180 545.5 102.5)" fill="#F8F9FF" stroke="black"/>
</mask>
<g mask="url(#mask1_6101_480)">
<path d="M-184.101 173L32.5674 -70.8729" stroke="#83EB91" stroke-linecap="round" stroke-linejoin="round"/>
<path d="M-178.707 173L37.9615 -70.8729" stroke="#83EB91" stroke-linecap="round" stroke-linejoin="round"/>
<path d="M-173.312 173L43.3558 -70.8729" stroke="#83EB91" stroke-linecap="round" stroke-linejoin="round"/>
<path d="M-167.918 173L48.75 -70.8729" stroke="#83EB91" stroke-linecap="round" stroke-linejoin="round"/>
<path d="M-162.524 173L54.1443 -70.8729" stroke="#83EB91" stroke-linecap="round" stroke-linejoin="round"/>
<path d="M-157.13 173L59.5385 -70.8729" stroke="#83EB91" stroke-linecap="round" stroke-linejoin="round"/>
<path d="M-151.736 173L64.9326 -70.8729" stroke="#83EB91" stroke-linecap="round" stroke-linejoin="round"/>
<path d="M-146.341 173L70.3269 -70.8729" stroke="#83EB91" stroke-linecap="round" stroke-linejoin="round"/>
<path d="M-140.947 173L75.7212 -70.8729" stroke="#83EB91" stroke-linecap="round" stroke-linejoin="round"/>
<path d="M-135.553 173L81.1155 -70.8729" stroke="#83EB91" stroke-linecap="round" stroke-linejoin="round"/>
<path d="M-130.159 173L86.5096 -70.8729" stroke="#83EB91" stroke-linecap="round" stroke-linejoin="round"/>
<path d="M-124.764 173L91.9038 -70.8729" stroke="#83EB91" stroke-linecap="round" stroke-linejoin="round"/>
<path d="M-119.37 173L97.2981 -70.8729" stroke="#83EB91" stroke-linecap="round" stroke-linejoin="round"/>
<path d="M-113.976 173L102.692 -70.8729" stroke="#83EB91" stroke-linecap="round" stroke-linejoin="round"/>
<path d="M-108.582 173L108.087 -70.8729" stroke="#83EB91" stroke-linecap="round" stroke-linejoin="round"/>
<path d="M-103.187 173L113.481 -70.8729" stroke="#83EB91" stroke-linecap="round" stroke-linejoin="round"/>
<path d="M-97.7933 173L118.875 -70.8729" stroke="#83EB91" stroke-linecap="round" stroke-linejoin="round"/>
<path d="M-92.399 173L124.269 -70.8729" stroke="#83EB91" stroke-linecap="round" stroke-linejoin="round"/>
<path d="M-87.0048 173L129.663 -70.8729" stroke="#83EB91" stroke-linecap="round" stroke-linejoin="round"/>
<path d="M-81.6106 173L135.058 -70.8729" stroke="#83EB91" stroke-linecap="round" stroke-linejoin="round"/>
<path d="M-76.2164 173L140.452 -70.8729" stroke="#83EB91" stroke-linecap="round" stroke-linejoin="round"/>
<path d="M-70.8221 173L145.846 -70.8729" stroke="#83EB91" stroke-linecap="round" stroke-linejoin="round"/>
<path d="M-65.4278 173L151.24 -70.8729" stroke="#83EB91" stroke-linecap="round" stroke-linejoin="round"/>
<path d="M-60.0336 173L156.635 -70.8729" stroke="#83EB91" stroke-linecap="round" stroke-linejoin="round"/>
<path d="M-54.6395 173L162.029 -70.8729" stroke="#83EB91" stroke-linecap="round" stroke-linejoin="round"/>
<path d="M-49.2453 173L167.423 -70.8729" stroke="#83EB91" stroke-linecap="round" stroke-linejoin="round"/>
<path d="M-43.851 173L172.817 -70.8729" stroke="#83EB91" stroke-linecap="round" stroke-linejoin="round"/>
<path d="M-38.4566 173L178.212 -70.8729" stroke="#83EB91" stroke-linecap="round" stroke-linejoin="round"/>
<path d="M-33.0624 173L183.606 -70.8729" stroke="#83EB91" stroke-linecap="round" stroke-linejoin="round"/>
<path d="M-27.6683 173L189 -70.8729" stroke="#83EB91" stroke-linecap="round" stroke-linejoin="round"/>
<path d="M-22.2741 173L194.394 -70.8729" stroke="#83EB91" stroke-linecap="round" stroke-linejoin="round"/>
<path d="M-16.8798 173L199.788 -70.8729" stroke="#83EB91" stroke-linecap="round" stroke-linejoin="round"/>
<path d="M-11.4855 173L205.183 -70.8729" stroke="#83EB91" stroke-linecap="round" stroke-linejoin="round"/>
<path d="M-6.09136 173L210.577 -70.8729" stroke="#83EB91" stroke-linecap="round" stroke-linejoin="round"/>
<path d="M-0.697071 173L215.971 -70.8729" stroke="#83EB91" stroke-linecap="round" stroke-linejoin="round"/>
<path d="M4.69709 173L221.365 -70.8729" stroke="#83EB91" stroke-linecap="round" stroke-linejoin="round"/>
<path d="M10.0914 173L226.76 -70.8729" stroke="#83EB91" stroke-linecap="round" stroke-linejoin="round"/>
<path d="M15.4855 173L232.154 -70.8729" stroke="#83EB91" stroke-linecap="round" stroke-linejoin="round"/>
<path d="M20.8797 173L237.548 -70.8729" stroke="#83EB91" stroke-linecap="round" stroke-linejoin="round"/>
<path d="M26.274 173L242.942 -70.8729" stroke="#83EB91" stroke-linecap="round" stroke-linejoin="round"/>
<path d="M31.6684 173L248.337 -70.8729" stroke="#83EB91" stroke-linecap="round" stroke-linejoin="round"/>
<path d="M37.0626 173L253.731 -70.8729" stroke="#83EB91" stroke-linecap="round" stroke-linejoin="round"/>
<path d="M42.4567 173L259.125 -70.8729" stroke="#83EB91" stroke-linecap="round" stroke-linejoin="round"/>
<path d="M47.8509 173L264.519 -70.8729" stroke="#83EB91" stroke-linecap="round" stroke-linejoin="round"/>
<path d="M53.2452 173L269.913 -70.8729" stroke="#83EB91" stroke-linecap="round" stroke-linejoin="round"/>
<path d="M58.6395 173L275.308 -70.8729" stroke="#83EB91" stroke-linecap="round" stroke-linejoin="round"/>
<path d="M64.0336 173L280.702 -70.8729" stroke="#83EB91" stroke-linecap="round" stroke-linejoin="round"/>
<path d="M69.4279 173L286.096 -70.8729" stroke="#83EB91" stroke-linecap="round" stroke-linejoin="round"/>
<path d="M74.8221 173L291.49 -70.8729" stroke="#83EB91" stroke-linecap="round" stroke-linejoin="round"/>
<path d="M80.2164 173L296.885 -70.8729" stroke="#83EB91" stroke-linecap="round" stroke-linejoin="round"/>
<path d="M85.6105 173L302.279 -70.8729" stroke="#83EB91" stroke-linecap="round" stroke-linejoin="round"/>
<path d="M91.0047 173L307.673 -70.8729" stroke="#83EB91" stroke-linecap="round" stroke-linejoin="round"/>
<path d="M96.399 173L313.067 -70.8729" stroke="#83EB91" stroke-linecap="round" stroke-linejoin="round"/>
<path d="M101.793 173L318.462 -70.8729" stroke="#83EB91" stroke-linecap="round" stroke-linejoin="round"/>
<path d="M107.188 173L323.856 -70.8729" stroke="#83EB91" stroke-linecap="round" stroke-linejoin="round"/>
<path d="M112.582 173L329.25 -70.8729" stroke="#83EB91" stroke-linecap="round" stroke-linejoin="round"/>
<path d="M117.976 173L334.644 -70.8729" stroke="#83EB91" stroke-linecap="round" stroke-linejoin="round"/>
<path d="M123.37 173L340.038 -70.8729" stroke="#83EB91" stroke-linecap="round" stroke-linejoin="round"/>
<path d="M128.764 173L345.433 -70.8729" stroke="#83EB91" stroke-linecap="round" stroke-linejoin="round"/>
<path d="M134.159 173L350.827 -70.8729" stroke="#83EB91" stroke-linecap="round" stroke-linejoin="round"/>
<path d="M139.553 173L356.221 -70.8729" stroke="#83EB91" stroke-linecap="round" stroke-linejoin="round"/>
<path d="M144.947 173L361.615 -70.8729" stroke="#83EB91" stroke-linecap="round" stroke-linejoin="round"/>
<path d="M150.341 173L367.01 -70.8729" stroke="#83EB91" stroke-linecap="round" stroke-linejoin="round"/>
<path d="M155.736 173L372.404 -70.8729" stroke="#83EB91" stroke-linecap="round" stroke-linejoin="round"/>
<path d="M161.13 173L377.798 -70.8729" stroke="#83EB91" stroke-linecap="round" stroke-linejoin="round"/>
<path d="M166.524 173L383.192 -70.8729" stroke="#83EB91" stroke-linecap="round" stroke-linejoin="round"/>
<path d="M171.918 173L388.587 -70.8729" stroke="#83EB91" stroke-linecap="round" stroke-linejoin="round"/>
<path d="M177.313 173L393.981 -70.8729" stroke="#83EB91" stroke-linecap="round" stroke-linejoin="round"/>
<path d="M182.707 173L399.375 -70.8729" stroke="#83EB91" stroke-linecap="round" stroke-linejoin="round"/>
<path d="M188.101 173L404.769 -70.8729" stroke="#83EB91" stroke-linecap="round" stroke-linejoin="round"/>
<path d="M193.495 173L410.163 -70.8729" stroke="#83EB91" stroke-linecap="round" stroke-linejoin="round"/>
<path d="M198.889 173L415.558 -70.8729" stroke="#83EB91" stroke-linecap="round" stroke-linejoin="round"/>
<path d="M204.284 173L420.952 -70.8729" stroke="#83EB91" stroke-linecap="round" stroke-linejoin="round"/>
<path d="M209.678 173L426.346 -70.8729" stroke="#83EB91" stroke-linecap="round" stroke-linejoin="round"/>
<path d="M215.072 173L431.74 -70.8729" stroke="#83EB91" stroke-linecap="round" stroke-linejoin="round"/>
<path d="M220.466 173L437.135 -70.8729" stroke="#83EB91" stroke-linecap="round" stroke-linejoin="round"/>
</g>
</g>
</svg>
