<svg width="15" height="15" viewBox="0 0 15 15" fill="none" xmlns="http://www.w3.org/2000/svg">
<path d="M2.44524 14.1667H8.88803C10.1265 14.1667 11.1421 13.2375 11.3009 12.0417H11.7214C13.0696 12.0417 14.1667 10.9446 14.1667 9.59643V2.44524C14.1667 1.09707 13.0696 0 11.7214 0H5.27857C3.9304 0 2.83333 1.09707 2.83333 2.44524V2.83333H2.44524C1.09707 2.83333 0 3.9304 0 5.27857V11.7214C0 13.0696 1.09707 14.1667 2.44524 14.1667ZM4.25 2.44524C4.25 1.87808 4.71141 1.41667 5.27857 1.41667H11.7214C12.2886 1.41667 12.75 1.87808 12.75 2.44524V9.59636C12.75 10.1636 12.2886 10.625 11.7214 10.625H11.3333V5.27857C11.3333 3.9304 10.2363 2.83333 8.8881 2.83333H4.25V2.44524ZM1.41667 5.27857C1.41667 4.71141 1.87808 4.25 2.44524 4.25H8.88803C9.45526 4.25 9.91667 4.71141 9.91667 5.27857V11.7214C9.91667 12.2886 9.45526 12.75 8.8881 12.75H2.44524C1.87808 12.75 1.41667 12.2886 1.41667 11.7214V5.27857Z" fill="#6C63FF"/>
</svg>
