<svg width="23" height="25" viewBox="0 0 23 25" fill="none" xmlns="http://www.w3.org/2000/svg">
<path fill-rule="evenodd" clip-rule="evenodd" d="M16.5192 12.7472C16.9669 12.5797 17.4655 12.8068 17.6329 13.2545L19.2284 17.5195L20.8239 13.2545C20.9914 12.8068 21.49 12.5797 21.9377 12.7472C22.3852 12.9146 22.6124 13.4133 22.445 13.8608L20.7382 18.4234C20.5975 18.7998 20.4642 19.1562 20.3298 19.4137C20.2589 19.5492 20.1549 19.7242 20.0007 19.8724C19.8285 20.0378 19.5678 20.1922 19.2284 20.1922C18.8891 20.1922 18.6283 20.0378 18.4562 19.8724C18.3019 19.7242 18.1978 19.5492 18.1271 19.4137C17.9927 19.1562 17.8594 18.7996 17.7186 18.4234C17.7126 18.4072 17.7066 18.3912 17.7005 18.375L16.0119 13.8608C15.8444 13.4133 16.0715 12.9146 16.5192 12.7472ZM8.04305 14.4417C7.86491 14.4253 7.65514 14.4231 7.38587 14.4231C7.0005 14.4231 6.75602 14.4472 6.59846 14.4846C6.50176 14.5076 6.46224 14.5297 6.4506 14.5378C6.44322 14.549 6.41947 14.5925 6.39674 14.7051C6.36342 14.8699 6.346 15.1115 6.346 15.4807V17.4038C6.346 17.7731 6.36342 18.0147 6.39674 18.1796C6.41947 18.2921 6.44322 18.3356 6.4506 18.3468C6.46224 18.3548 6.50176 18.377 6.59846 18.4C6.75602 18.4373 7.0005 18.4616 7.38587 18.4616C7.65514 18.4616 7.86491 18.4593 8.04305 18.4429C8.22244 18.4264 8.31429 18.3996 8.35769 18.3801C8.36359 18.3776 8.36787 18.3753 8.37083 18.3736C8.37963 18.3561 8.40918 18.2854 8.41705 18.1145C8.43902 17.637 8.84383 17.2678 9.32129 17.2897C9.79875 17.3118 10.168 17.7165 10.1459 18.194C10.1285 18.573 10.0476 18.9405 9.8561 19.2627C9.65649 19.5982 9.37449 19.821 9.06583 19.9594C8.54507 20.1929 7.90253 20.1926 7.43283 20.1923C7.41698 20.1923 7.40132 20.1923 7.38587 20.1923C6.59339 20.1923 5.74516 20.1232 5.19004 19.533C4.90682 19.232 4.77052 18.8702 4.70024 18.5223C4.63168 18.1829 4.61523 17.8009 4.61523 17.4038V15.4807C4.61523 15.0837 4.63168 14.7018 4.70024 14.3623C4.77052 14.0144 4.90682 13.6527 5.19004 13.3515C5.74516 12.7615 6.59339 12.6924 7.38587 12.6924C7.40132 12.6924 7.41698 12.6924 7.43283 12.6922C7.90253 12.692 8.54508 12.6917 9.06583 12.9252C9.37449 13.0635 9.65649 13.2863 9.8561 13.6219C10.0476 13.944 10.1285 14.3115 10.1459 14.6906C10.168 15.168 9.79875 15.5729 9.32129 15.5948C8.84383 15.6168 8.43902 15.2475 8.41705 14.7702C8.40918 14.5992 8.37963 14.5285 8.37083 14.5109C8.36787 14.5093 8.36359 14.5071 8.35769 14.5045C8.31429 14.485 8.22245 14.4582 8.04305 14.4417ZM13.244 12.6924H14.3899C14.8678 12.6924 15.2553 13.0798 15.2553 13.5577C15.2553 14.0357 14.8678 14.4231 14.3899 14.4231H13.2678C13.0317 14.4231 12.898 14.4236 12.8 14.4303C12.7661 14.4326 12.7456 14.4352 12.7351 14.4368L12.7304 14.4392C12.7287 14.4434 12.7266 14.4493 12.7243 14.4572C12.7134 14.4936 12.7022 14.5536 12.6958 14.6516C12.6895 14.7499 12.6896 14.8538 12.6896 14.991V15.0089C12.6896 15.1462 12.6895 15.2502 12.6958 15.3484C12.7022 15.4463 12.7134 15.5065 12.7243 15.5429C12.7266 15.5507 12.7287 15.5565 12.7304 15.5608L12.7351 15.5632C12.7456 15.5648 12.7661 15.5675 12.8 15.5698C12.898 15.5765 13.0317 15.577 13.2678 15.577H13.2916C13.4952 15.577 13.6891 15.5768 13.8532 15.588C14.0314 15.6003 14.2368 15.6284 14.4482 15.7159C15.0221 15.9533 15.3319 16.3868 15.4691 16.8449C15.5785 17.2095 15.5774 17.5991 15.5769 17.8367C15.5767 17.8534 15.5767 17.8694 15.5767 17.8847C15.5767 17.8998 15.5767 17.9158 15.5769 17.9325C15.5774 18.1701 15.5785 18.5596 15.4691 18.9244C15.3319 19.3825 15.0221 19.8158 14.4482 20.0533C14.2368 20.1408 14.0314 20.169 13.8532 20.1811C13.6891 20.1923 13.4952 20.1923 13.2916 20.1923H12.0456C11.5677 20.1923 11.1803 19.8049 11.1803 19.327C11.1803 18.8489 11.5677 18.4616 12.0456 18.4616H13.2678C13.5039 18.4616 13.6376 18.4611 13.7354 18.4544C13.7695 18.4521 13.7899 18.4495 13.8004 18.4478L13.8051 18.4454C13.8069 18.4411 13.8089 18.4353 13.8112 18.4274C13.8221 18.3911 13.8333 18.331 13.8396 18.233C13.846 18.1348 13.846 18.0308 13.846 17.8935V17.8757C13.846 17.7385 13.846 17.6345 13.8396 17.5362C13.8333 17.4382 13.8221 17.3782 13.8112 17.3418C13.8089 17.3339 13.8069 17.328 13.8051 17.3238L13.8004 17.3215C13.7899 17.3197 13.7695 17.3172 13.7354 17.3149C13.6376 17.3082 13.5039 17.3077 13.2678 17.3077H13.244C13.0402 17.3077 12.8464 17.3077 12.6823 17.2965C12.5041 17.2844 12.2988 17.2562 12.0874 17.1687C11.5135 16.9312 11.2037 16.4978 11.0664 16.0398C10.9571 15.675 10.9581 15.2855 10.9587 15.0479C10.9587 15.0312 10.9588 15.0152 10.9588 15C10.9588 14.9848 10.9587 14.9688 10.9587 14.952C10.9581 14.7145 10.9571 14.325 11.0664 13.9603C11.2037 13.5022 11.5135 13.0687 12.0874 12.8313C12.2988 12.7438 12.5041 12.7157 12.6823 12.7034C12.8464 12.6922 13.0402 12.6924 13.244 12.6924Z" fill="#465578"/>
<path fill-rule="evenodd" clip-rule="evenodd" d="M5.47454 22.9666C6.52331 23.0758 7.88139 23.077 9.78148 23.077H14.7115C15.1894 23.077 15.5769 23.4643 15.5769 23.9424C15.5769 24.4203 15.1894 24.8078 14.7115 24.8078H9.7314C7.89236 24.8078 6.44408 24.8078 5.29513 24.688C4.12197 24.5657 3.15729 24.3106 2.33204 23.7291C1.8915 23.4188 1.49863 23.0494 1.16621 22.6315C0.537508 21.8411 0.260181 20.9116 0.128193 19.7898C-3.37769e-05 18.7001 -2.2464e-05 17.3299 6.12857e-07 15.6062V12.5822C6.12857e-07 10.8993 -1.08879e-05 9.59356 0.0695082 8.53962C0.139962 7.47139 0.28447 6.60205 0.60195 5.80093C1.569 3.36068 3.60535 1.45545 6.16146 0.558152C7.75246 -0.000354601 9.70474 -0.000216312 13.1262 3.75334e-05C13.1995 4.90719e-05 13.2734 4.90875e-05 13.3479 4.90875e-05C13.4144 4.90875e-05 13.48 3.76553e-05 13.5447 2.61169e-05C15.4315 -0.00036619 16.6073 -0.000608551 17.5772 0.339902C19.1338 0.886329 20.3818 2.04953 20.9761 3.54908C21.1775 4.05762 21.2641 4.59751 21.3056 5.22627C21.3461 5.84081 21.3461 6.59721 21.3461 7.54842V10.0962C21.3461 10.5742 20.9587 10.9616 20.4807 10.9616C20.0028 10.9616 19.6153 10.5742 19.6153 10.0962V7.57871C19.6153 6.59043 19.6149 5.89106 19.5785 5.34018C19.5428 4.79703 19.4747 4.45838 19.367 4.18672C18.9671 3.1777 18.1127 2.36218 17.004 1.97297C16.3494 1.74317 15.4969 1.73082 13.3479 1.73082C9.64198 1.73082 8.01107 1.74317 6.73474 2.19122C4.62649 2.9313 2.98363 4.48885 2.21097 6.43857C1.98737 7.00281 1.86134 7.67091 1.79653 8.65354C1.73121 9.64388 1.73077 10.8927 1.73077 12.6137V15.5507C1.73077 17.3425 1.73216 18.6108 1.8471 19.5876C1.95964 20.5441 2.17137 21.1149 2.52077 21.5541C2.74885 21.8409 3.0207 22.0971 3.32889 22.3143C3.81024 22.6534 4.43959 22.8587 5.47454 22.9666Z" fill="#465578"/>
<path fill-rule="evenodd" clip-rule="evenodd" d="M0.865383 13.2693C0.387438 13.2693 0 12.8819 0 12.4039C0 9.80179 2.10942 7.69236 4.71153 7.69236C4.92587 7.69236 5.14465 7.70172 5.34893 7.71119C5.37528 7.71242 5.40138 7.71364 5.42725 7.71485C5.60803 7.72333 5.77821 7.7313 5.94788 7.73483C6.34093 7.74299 6.65546 7.72408 6.90836 7.65632C7.27335 7.55852 7.55845 7.27341 7.65625 6.90842C7.72402 6.65552 7.74293 6.341 7.73476 5.94794C7.73124 5.7783 7.72327 5.60814 7.71479 5.42739C7.71358 5.40148 7.71235 5.37536 7.71113 5.349C7.70165 5.14471 7.69229 4.92593 7.69229 4.71159C7.69229 2.10948 9.80167 6.10352e-05 12.4038 6.10352e-05C12.8817 6.10352e-05 13.2692 0.387511 13.2692 0.865445C13.2692 1.34338 12.8817 1.73083 12.4038 1.73083C10.7576 1.73083 9.42309 3.06536 9.42309 4.71159C9.42309 4.88135 9.43047 5.06387 9.44005 5.26879C9.44121 5.29375 9.44236 5.31908 9.44363 5.34474C9.45194 5.52349 9.46117 5.71801 9.46521 5.91201C9.47432 6.35058 9.46047 6.86236 9.32801 7.35637C9.07024 8.31865 8.31858 9.07027 7.35631 9.32811C6.86229 9.46048 6.35052 9.47434 5.91195 9.46522C5.71793 9.46119 5.52342 9.45205 5.34467 9.44366C5.31902 9.44244 5.29369 9.44126 5.26873 9.4401C5.06381 9.43059 4.88129 9.42313 4.71153 9.42313C3.06529 9.42313 1.73077 10.7576 1.73077 12.4039C1.73077 12.8819 1.34332 13.2693 0.865383 13.2693Z" fill="#465578"/>
</svg>
