<svg width="48" height="43" viewBox="0 0 48 43" fill="none" xmlns="http://www.w3.org/2000/svg">
<path d="M20.4549 2.04731L0.548976 36.5229C0.189404 37.1455 6.65492e-05 37.8518 1.75401e-08 38.5708C-6.65141e-05 39.2897 0.18914 39.996 0.548597 40.6187C0.908053 41.2413 1.42509 41.7584 2.04774 42.1178C2.67038 42.4773 3.37668 42.6665 4.09564 42.6664H43.9044C44.6233 42.6665 45.3296 42.4773 45.9523 42.1178C46.5749 41.7584 47.0919 41.2413 47.4514 40.6187C47.8109 39.996 48.0001 39.2897 48 38.5708C47.9999 37.8518 47.8106 37.1455 47.451 36.5229L27.5472 2.04731C27.1878 1.42484 26.6709 0.907948 26.0484 0.548572C25.4259 0.189196 24.7198 0 24.0011 0C23.2823 0 22.5762 0.189196 21.9537 0.548572C21.3312 0.907948 20.8143 1.42484 20.4549 2.04731Z" fill="#FF6161"/>
<path d="M23.834 14H23.3148C22.0364 14 21 15.0364 21 16.3148V27.3789C21 28.6573 22.0364 29.6937 23.3148 29.6937H23.834C25.1124 29.6937 26.1488 28.6573 26.1488 27.3789V16.3148C26.1488 15.0364 25.1124 14 23.834 14Z" fill="white"/>
<path d="M23.5744 38.4686C24.9962 38.4686 26.1488 37.316 26.1488 35.8942C26.1488 34.4724 24.9962 33.3198 23.5744 33.3198C22.1526 33.3198 21 34.4724 21 35.8942C21 37.316 22.1526 38.4686 23.5744 38.4686Z" fill="white"/>
</svg>
