<svg width="17" height="20" viewBox="0 0 17 20" fill="none" xmlns="http://www.w3.org/2000/svg">
<path d="M14.9575 4.61333L12.0542 1.70833C10.9517 0.606667 9.48667 0 7.92917 0H4.16667C1.86917 0 0 1.86917 0 4.16667V15.8333C0 18.1308 1.86917 20 4.16667 20H12.5C14.7975 20 16.6667 18.1308 16.6667 15.8333V8.7375C16.6667 7.17833 16.0592 5.715 14.9575 4.61333ZM13.7792 5.7925C14.0442 6.05667 14.2683 6.35083 14.45 6.6675H10.8325C10.3725 6.6675 9.99917 6.29333 9.99917 5.83417V2.21583C10.3158 2.3975 10.61 2.62167 10.875 2.88667L13.7783 5.79167L13.7792 5.7925ZM15 15.8342C15 17.2125 13.8783 18.3342 12.5 18.3342H4.16667C2.78833 18.3342 1.66667 17.2125 1.66667 15.8342V4.16667C1.66667 2.78833 2.78833 1.66667 4.16667 1.66667H7.92917C8.065 1.66667 8.2 1.67333 8.33333 1.68583V5.83333C8.33333 7.21167 9.455 8.33333 10.8333 8.33333H14.9808C14.9933 8.46667 15 8.60167 15 8.7375V15.8342ZM11.4225 13.4217C11.7483 13.7467 11.7483 14.2742 11.4225 14.6L10.0783 15.945C9.5975 16.4258 8.965 16.6667 8.33333 16.6667C7.70167 16.6667 7.06917 16.4258 6.58833 15.945L5.24417 14.6C4.91833 14.2742 4.91833 13.7467 5.24417 13.4217C5.57 13.0958 6.09667 13.0958 6.4225 13.4217L7.5 14.4992V10.8342C7.5 10.3742 7.8725 10.0008 8.33333 10.0008C8.79417 10.0008 9.16667 10.3742 9.16667 10.8342V14.4992L10.2442 13.4217C10.57 13.0958 11.0967 13.0958 11.4225 13.4217Z" fill="#6C63FF"/>
</svg>
