<svg width="17" height="17" viewBox="0 0 17 17" fill="none" xmlns="http://www.w3.org/2000/svg">
<path d="M13.2145 0.65872L4.57852 9.29472C4.24868 9.62278 3.98719 10.013 3.80918 10.4428C3.63118 10.8726 3.5402 11.3335 3.54152 11.7987V12.75C3.54152 12.9378 3.61615 13.118 3.74898 13.2508C3.88182 13.3837 4.06199 13.4583 4.24985 13.4583H5.20114C5.66635 13.4596 6.1272 13.3686 6.557 13.1906C6.98681 13.0126 7.37704 12.7511 7.7051 12.4213L16.3411 3.7853C16.755 3.37034 16.9875 2.80814 16.9875 2.22201C16.9875 1.63588 16.755 1.07368 16.3411 0.65872C15.9201 0.256311 15.3602 0.0317383 14.7778 0.0317383C14.1954 0.0317383 13.6355 0.256311 13.2145 0.65872ZM15.3395 2.78372L6.70352 11.4197C6.30411 11.8167 5.76427 12.0402 5.20114 12.0416H4.95818V11.7987C4.95966 11.2355 5.18313 10.6957 5.5801 10.2963L14.2161 1.6603C14.3674 1.51577 14.5686 1.43512 14.7778 1.43512C14.987 1.43512 15.1882 1.51577 15.3395 1.6603C15.4882 1.80942 15.5717 2.01142 15.5717 2.22201C15.5717 2.43261 15.4882 2.63461 15.3395 2.78372Z" fill="#6C63FF"/>
<path d="M16.2917 6.36013C16.1038 6.36013 15.9236 6.43475 15.7908 6.56759C15.658 6.70043 15.5833 6.8806 15.5833 7.06846V10.625H12.75C12.1864 10.625 11.6459 10.8489 11.2474 11.2474C10.8489 11.6459 10.625 12.1864 10.625 12.75V15.5833H3.54167C2.97808 15.5833 2.43758 15.3595 2.03906 14.9609C1.64055 14.5624 1.41667 14.0219 1.41667 13.4583V3.54167C1.41667 2.97808 1.64055 2.43758 2.03906 2.03906C2.43758 1.64055 2.97808 1.41667 3.54167 1.41667H9.94642C10.1343 1.41667 10.3144 1.34204 10.4473 1.2092C10.5801 1.07636 10.6548 0.896195 10.6548 0.708333C10.6548 0.520472 10.5801 0.340304 10.4473 0.207466C10.3144 0.0746278 10.1343 0 9.94642 0L3.54167 0C2.6027 0.00112473 1.70252 0.374625 1.03857 1.03857C0.374625 1.70252 0.00112473 2.6027 0 3.54167L0 13.4583C0.00112473 14.3973 0.374625 15.2975 1.03857 15.9614C1.70252 16.6254 2.6027 16.9989 3.54167 17H11.5763C12.0416 17.0013 12.5026 16.9104 12.9325 16.7324C13.3624 16.5544 13.7528 16.2929 14.081 15.963L15.9623 14.0803C16.2922 13.7522 16.5538 13.362 16.7319 12.9322C16.91 12.5024 17.0011 12.0415 17 11.5763V7.06846C17 6.8806 16.9254 6.70043 16.7925 6.56759C16.6597 6.43475 16.4795 6.36013 16.2917 6.36013ZM13.0794 14.9614C12.7946 15.2455 12.4346 15.4421 12.0417 15.5281V12.75C12.0417 12.5621 12.1163 12.382 12.2491 12.2491C12.382 12.1163 12.5621 12.0417 12.75 12.0417H15.5302C15.4426 12.4337 15.2462 12.7932 14.9635 13.0787L13.0794 14.9614Z" fill="#6C63FF"/>
</svg>
