<svg width="18" height="17" viewBox="0 0 18 17" fill="none" xmlns="http://www.w3.org/2000/svg">
<path d="M13.6144 0.65872L4.97842 9.29472C4.64858 9.62278 4.38709 10.013 4.20909 10.4428C4.03108 10.8726 3.94011 11.3335 3.94142 11.7987V12.75C3.94142 12.9378 4.01605 13.118 4.14889 13.2508C4.28172 13.3837 4.46189 13.4583 4.64975 13.4583H5.60105C6.06625 13.4596 6.5271 13.3686 6.95691 13.1906C7.38671 13.0126 7.77694 12.7511 8.105 12.4213L16.741 3.7853C17.155 3.37034 17.3874 2.80814 17.3874 2.22201C17.3874 1.63588 17.155 1.07368 16.741 0.65872C16.32 0.256311 15.7601 0.0317383 15.1777 0.0317383C14.5953 0.0317383 14.0354 0.256311 13.6144 0.65872ZM15.7394 2.78372L7.10342 11.4197C6.70401 11.8167 6.16417 12.0402 5.60105 12.0416H5.35809V11.7987C5.35956 11.2355 5.58303 10.6957 5.98 10.2963L14.616 1.6603C14.7673 1.51577 14.9685 1.43512 15.1777 1.43512C15.3869 1.43512 15.5881 1.51577 15.7394 1.6603C15.8881 1.80942 15.9716 2.01142 15.9716 2.22201C15.9716 2.43261 15.8881 2.63461 15.7394 2.78372Z" fill="#6C63FF"/>
<path d="M16.6921 6.36013C16.5042 6.36013 16.324 6.43475 16.1912 6.56759C16.0584 6.70043 15.9837 6.8806 15.9837 7.06846V10.625H13.1504C12.5868 10.625 12.0463 10.8489 11.6478 11.2474C11.2493 11.6459 11.0254 12.1864 11.0254 12.75V15.5833H3.94206C3.37847 15.5833 2.83797 15.3595 2.43946 14.9609C2.04094 14.5624 1.81706 14.0219 1.81706 13.4583V3.54167C1.81706 2.97808 2.04094 2.43758 2.43946 2.03906C2.83797 1.64055 3.37847 1.41667 3.94206 1.41667H10.3468C10.5347 1.41667 10.7148 1.34204 10.8477 1.2092C10.9805 1.07636 11.0551 0.896195 11.0551 0.708333C11.0551 0.520472 10.9805 0.340304 10.8477 0.207466C10.7148 0.0746278 10.5347 0 10.3468 0L3.94206 0C3.00309 0.00112473 2.10291 0.374625 1.43896 1.03857C0.775015 1.70252 0.401515 2.6027 0.400391 3.54167L0.400391 13.4583C0.401515 14.3973 0.775015 15.2975 1.43896 15.9614C2.10291 16.6254 3.00309 16.9989 3.94206 17H11.9767C12.442 17.0013 12.903 16.9104 13.3329 16.7324C13.7628 16.5544 14.1532 16.2929 14.4813 15.963L16.3627 14.0803C16.6926 13.7522 16.9542 13.362 17.1323 12.9322C17.3104 12.5024 17.4015 12.0415 17.4004 11.5763V7.06846C17.4004 6.8806 17.3258 6.70043 17.1929 6.56759C17.0601 6.43475 16.8799 6.36013 16.6921 6.36013ZM13.4798 14.9614C13.195 15.2455 12.8349 15.4421 12.4421 15.5281V12.75C12.4421 12.5621 12.5167 12.382 12.6495 12.2491C12.7824 12.1163 12.9625 12.0417 13.1504 12.0417H15.9306C15.843 12.4337 15.6466 12.7932 15.3639 13.0787L13.4798 14.9614Z" fill="#6C63FF"/>
</svg>
