<svg width="34" height="36" viewBox="0 0 34 36" fill="none" xmlns="http://www.w3.org/2000/svg">
<path fill-rule="evenodd" clip-rule="evenodd" d="M33.141 12.1344C33.141 10.7896 32.6061 9.50015 31.6561 8.54829C29.8796 6.7737 26.3673 3.26141 24.5927 1.48497C23.6409 0.53496 22.3514 0 21.0067 0C18.5993 0 13.7755 0 9.62125 0C7.29694 0 5.06856 0.922344 3.42494 2.56596C1.78132 4.20958 0.858978 6.43796 0.858978 8.76227V27.2092C0.858978 32.0478 4.78263 35.9714 9.62125 35.9714H24.3788C29.2174 35.9714 33.141 32.0478 33.141 27.2092C33.141 21.8799 33.141 15.1154 33.141 12.1344ZM21.1506 2.77072C21.1026 2.76888 21.0546 2.76703 21.0067 2.76703C18.5993 2.76703 13.7755 2.76703 9.62125 2.76703C8.03113 2.76703 6.50557 3.39792 5.38215 4.52318C4.2569 5.64659 3.62601 7.17215 3.62601 8.76227V27.2092C3.62601 30.5204 6.31003 33.2044 9.62125 33.2044H24.3788C27.69 33.2044 30.374 30.5204 30.374 27.2092C30.374 21.8799 30.374 15.1154 30.374 12.1344C30.374 12.0864 30.3722 12.0384 30.3703 11.9905H26.2234C24.8787 11.9905 23.5874 11.4555 22.6355 10.5055C21.6855 9.55364 21.1506 8.26236 21.1506 6.91758V2.77072ZM28.4168 9.22344L23.9176 4.72425V6.91758C23.9176 7.53002 24.1611 8.11479 24.5927 8.54829C25.0262 8.97994 25.611 9.22344 26.2234 9.22344H28.4168Z" fill="#6C63FF"/>
<path fill-rule="evenodd" clip-rule="evenodd" d="M17 12.9128H17.0332C17.1605 12.9165 17.2841 12.9368 17.4003 12.9718L17.404 12.9737C17.6143 13.0364 17.8116 13.1526 17.9777 13.3186L21.667 17.008C22.2075 17.5467 22.2075 18.4247 21.667 18.9634C21.1284 19.5039 20.2503 19.5039 19.7117 18.9634L18.3835 17.6371V23.5198C18.3835 24.2835 17.7637 24.9033 17 24.9033C16.2363 24.9033 15.6165 24.2835 15.6165 23.5198V17.6371L14.2883 18.9634C13.7496 19.5039 12.8716 19.5039 12.3329 18.9634C11.7924 18.4247 11.7924 17.5467 12.3329 17.008L16.0223 13.3186C16.1883 13.1526 16.3857 13.0364 16.596 12.9737L16.5997 12.9718C16.7159 12.9368 16.8395 12.9165 16.9668 12.9128H17Z" fill="#6C63FF"/>
</svg>
