<svg width="12" height="10" viewBox="0 0 12 10" fill="none" xmlns="http://www.w3.org/2000/svg">
<path d="M4.07129 3.69043C3.78917 3.97829 3.40307 4.14062 3 4.14062C2.59693 4.14062 2.21083 3.97829 1.92871 3.69043L1.5 3.25195V7.44531L1.50488 7.55273C1.52932 7.80151 1.63717 8.03109 1.80469 8.20215C1.99502 8.39647 2.24662 8.49969 2.50195 8.5H9.49805C9.75338 8.49969 10.005 8.39647 10.1953 8.20215C10.3863 8.00716 10.4992 7.73616 10.5 7.44727V3.25195L10.0713 3.69043C9.78917 3.97829 9.40307 4.14062 9 4.14062C8.59693 4.14062 8.21083 3.97829 7.92871 3.69043L6 1.71973L4.07129 3.69043ZM12 7.44727C11.9992 8.124 11.7352 8.77244 11.2666 9.25098C10.7979 9.72956 10.1628 9.99919 9.5 10H2.5C1.91995 9.99929 1.36071 9.79318 0.916016 9.4209L0.733398 9.25098C0.264805 8.77244 0.000836665 8.124 0 7.44727V2.04199C6.33948e-05 1.8401 0.0590809 1.64247 0.168945 1.47461C0.278808 1.30691 0.434636 1.17585 0.617188 1.09863C0.799887 1.02136 1.00136 1.00163 1.19531 1.04102C1.38914 1.08044 1.56726 1.17762 1.70703 1.32031L3 2.64062L5.29297 0.298828C5.48049 0.107429 5.73486 0 6 0C6.26514 0 6.51951 0.107429 6.70703 0.298828L9 2.64062L10.293 1.32031C10.4325 1.17714 10.6107 1.07954 10.8047 1.04004C10.9988 1.00059 11.2001 1.02096 11.3828 1.09863C11.5655 1.17598 11.7222 1.30666 11.832 1.47461C11.9418 1.64251 12 1.84011 12 2.04199V7.44727Z" fill="#FFB200"/>
</svg>
