<svg width="18" height="23" viewBox="0 0 18 23" fill="none" xmlns="http://www.w3.org/2000/svg">
<path d="M8.99926 6.1304C8.29114 6.1304 7.59892 6.34038 7.01014 6.73379C6.42136 7.1272 5.96247 7.68637 5.69148 8.34058C5.4205 8.9948 5.34959 9.71468 5.48774 10.4092C5.62589 11.1037 5.96688 11.7417 6.4676 12.2424C6.96831 12.7431 7.60626 13.0841 8.30077 13.2222C8.99528 13.3604 9.71516 13.2895 10.3694 13.0185C11.0236 12.7475 11.5828 12.2886 11.9762 11.6998C12.3696 11.111 12.5796 10.4188 12.5796 9.71071C12.5796 8.76115 12.2024 7.85049 11.5309 7.17905C10.8595 6.50761 9.94881 6.1304 8.99926 6.1304ZM8.99926 11.5009C8.6452 11.5009 8.29909 11.3959 8.0047 11.1992C7.71031 11.0025 7.48086 10.7229 7.34537 10.3958C7.20988 10.0687 7.17443 9.70872 7.2435 9.36147C7.31257 9.01421 7.48307 8.69524 7.73343 8.44488C7.98378 8.19452 8.30276 8.02403 8.65001 7.95495C8.99727 7.88588 9.35721 7.92133 9.68432 8.05682C10.0114 8.19232 10.291 8.42176 10.4877 8.71615C10.6844 9.01054 10.7894 9.35665 10.7894 9.71071C10.7894 10.1855 10.6008 10.6408 10.2651 10.9765C9.92937 11.3123 9.47403 11.5009 8.99926 11.5009Z" fill="#465578"/>
<path d="M9 22.2418C8.24629 22.2456 7.50263 22.0689 6.83129 21.7263C6.15994 21.3837 5.58044 20.8852 5.14132 20.2726C1.73018 15.5672 0 12.0299 0 9.75815C0 7.3712 0.948211 5.08201 2.63604 3.39419C4.32387 1.70636 6.61305 0.758148 9 0.758148C11.3869 0.758148 13.6761 1.70636 15.364 3.39419C17.0518 5.08201 18 7.3712 18 9.75815C18 12.0299 16.2698 15.5672 12.8587 20.2726C12.4196 20.8852 11.8401 21.3837 11.1687 21.7263C10.4974 22.0689 9.75371 22.2456 9 22.2418ZM9 2.7121C7.13145 2.71423 5.34005 3.45746 4.01878 4.77872C2.69752 6.09998 1.95429 7.89139 1.95216 9.75994C1.95216 11.559 3.64654 14.886 6.72203 19.1278C6.98312 19.4874 7.32564 19.7801 7.72157 19.982C8.11751 20.1838 8.5556 20.289 9 20.289C9.4444 20.289 9.88249 20.1838 10.2784 19.982C10.6744 19.7801 11.0169 19.4874 11.278 19.1278C14.3535 14.886 16.0478 11.559 16.0478 9.75994C16.0457 7.89139 15.3025 6.09998 13.9812 4.77872C12.66 3.45746 10.8685 2.71423 9 2.7121Z" fill="#465578"/>
</svg>
