<svg width="191" height="95" viewBox="0 0 191 95" fill="none" xmlns="http://www.w3.org/2000/svg">
<path d="M184.671 31.4969H159.5V6.32611C159.5 2.83447 156.669 0 153.174 0H134.456C130.964 0 128.13 2.83086 128.13 6.32611V31.4969H102.959C99.4673 31.4969 96.6328 34.3278 96.6328 37.823V56.5414C96.6328 60.033 99.4637 62.8675 102.959 62.8675H128.13V88.0383C128.13 91.5299 130.961 94.3644 134.456 94.3644H153.174C156.666 94.3644 159.5 91.5335 159.5 88.0383V62.8675H184.671C188.163 62.8675 190.997 60.0366 190.997 56.5414V37.823C190.997 34.3314 188.166 31.4969 184.671 31.4969Z" fill="#80C2FF"/>
<path d="M81.0369 50.6773C81.3005 51.6956 81.7447 52.508 82.3657 53.1182C82.9868 53.732 83.6728 54.0931 84.4275 54.2051C85.3482 54.3567 86.1823 54.2376 86.9261 53.8512C87.67 53.4648 88.0888 52.8474 88.1827 52.0025C88.2946 51.0817 87.9083 50.3162 87.0236 49.7132C86.139 49.1102 84.6513 48.4603 82.5607 47.7634C81.2247 47.3301 80.1451 46.5827 79.329 45.5175C78.5094 44.4559 78.1375 43.3005 78.2133 42.0584C78.2711 40.874 78.7116 39.7763 79.5421 38.7689C80.3689 37.7615 81.4919 37.0971 82.9037 36.7794C83.6367 36.5736 84.4347 36.505 85.2905 36.5808C86.1462 36.6566 86.955 36.8263 87.7205 37.0899C88.4824 37.3535 89.1973 37.8085 89.8653 38.4584C90.5333 39.1083 91.0388 39.9027 91.3746 40.8451L87.9588 42.2858C87.6194 41.3434 87.0381 40.7007 86.2076 40.3505C85.3807 40.0038 84.4744 39.9894 83.4959 40.3071C82.2899 40.7007 81.7916 41.5131 82.001 42.7372C82.131 43.4702 82.9795 44.131 84.543 44.7123C85.879 45.2034 86.9442 45.6367 87.735 46.0122C88.5257 46.3877 89.284 46.8463 90.0098 47.3807C90.7355 47.9187 91.2627 48.5289 91.5913 49.2149C91.9199 49.901 92.0932 50.7062 92.1148 51.6306C92.151 53.4396 91.5118 54.8875 90.1939 55.978C88.876 57.0684 87.2367 57.6714 85.2796 57.787C83.3406 57.8808 81.6183 57.4114 80.1126 56.3751C78.6069 55.3389 77.7114 53.8981 77.4298 52.053L81.0442 50.6701L81.0369 50.6773Z" fill="#465678"/>
<path d="M3.60718 50.6773C3.87077 51.6955 4.31489 52.508 4.93595 53.1182C5.55701 53.732 6.24306 54.0931 6.99771 54.205C7.91846 54.3567 8.75256 54.2375 9.49638 53.8512C10.2402 53.4648 10.6591 52.8474 10.7529 52.0025C10.8649 51.0817 10.4785 50.3162 9.59387 49.7132C8.70923 49.1102 7.22158 48.4603 5.13093 47.7634C3.79494 47.3301 2.71531 46.5827 1.89928 45.5175C1.07963 44.4559 0.707715 43.3005 0.783542 42.0583C0.841314 40.874 1.28183 39.7763 2.11231 38.7689C2.93918 37.7615 4.06214 37.0971 5.47396 36.7794C6.20695 36.5735 7.00493 36.5049 7.86069 36.5808C8.71645 36.6566 9.52527 36.8263 10.2908 37.0899C11.0526 37.3535 11.7676 37.8084 12.4356 38.4584C13.1036 39.1083 13.6091 39.9027 13.9449 40.8451L10.5291 42.2858C10.1897 41.3434 9.60831 40.7007 8.77783 40.3504C7.95096 40.0038 7.04465 39.9894 6.06613 40.3071C4.86012 40.7007 4.36184 41.5131 4.57126 42.7372C4.70125 43.4702 5.54978 44.1309 7.11326 44.7123C8.44925 45.2033 9.51443 45.6366 10.3052 46.0122C11.096 46.3877 11.8542 46.8462 12.58 47.3806C13.3058 47.9187 13.8329 48.5289 14.1615 49.2149C14.4901 49.901 14.6634 50.7062 14.6851 51.6305C14.7212 53.4396 14.0821 54.8875 12.7641 55.9779C11.4462 57.0684 9.80691 57.6714 7.84986 57.7869C5.91086 57.8808 4.18852 57.4114 2.68282 56.3751C1.17712 55.3388 0.281642 53.8981 0 52.053L3.6144 50.6701L3.60718 50.6773Z" fill="#465678"/>
<path d="M35.9978 57.1625H31.8851L30.2928 52.6382H22.5585L20.9408 57.1625H16.8281L24.2591 37.5234L28.6462 37.5523L35.9978 57.1625ZM23.407 49.3452H29.2781L26.3426 41.5025L23.407 49.3452Z" fill="#465678"/>
<path d="M53.1625 53.4868V57.1337H40.6836V37.4404H44.771V53.4868H53.1625Z" fill="#465678"/>
<path d="M73.4271 49.8431C73.4271 50.7241 73.308 51.5799 73.066 52.4032C72.8277 53.2264 72.4342 54.0425 71.8853 54.8477C71.3365 55.6529 70.5204 56.2992 69.4264 56.7903C68.3323 57.2777 67.0216 57.5233 65.487 57.5233C64.2232 57.5233 63.0822 57.3536 62.064 57.0214C61.0457 56.6856 60.2441 56.2703 59.6484 55.772C59.0526 55.2737 58.5543 54.6888 58.1535 54.0172C57.7491 53.3456 57.4783 52.7137 57.3338 52.1179C57.1894 51.5221 57.1172 50.93 57.1172 50.3342V37.1729H61.4032V50.0742C61.4032 51.2802 61.7787 52.1793 62.5262 52.7642C63.2736 53.3492 64.2593 53.6417 65.487 53.6417C67.9965 53.6417 69.2531 52.5007 69.2531 50.2186V37.2017H73.4235V49.8467L73.4271 49.8431Z" fill="#465678"/>
<path d="M105.125 36.5555V57.805H101.066V36.5555H105.125Z" fill="#FCFCFC"/>
<path d="M121.196 57.8051C118.257 57.8051 115.747 56.7688 113.671 54.6926C111.595 52.6163 110.559 50.1141 110.559 47.1785C110.559 44.2429 111.595 41.7406 113.671 39.6644C115.747 37.5882 118.257 36.5519 121.196 36.5519C124.135 36.5519 126.616 37.5882 128.692 39.6644C130.768 41.737 131.805 44.2429 131.805 47.1785C131.805 50.1141 130.768 52.6163 128.692 54.6926C126.616 56.7651 124.117 57.8051 121.196 57.8051ZM116.668 51.9195C117.957 53.2482 119.503 53.909 121.308 53.909C123.114 53.909 124.663 53.2446 125.952 51.9195C127.237 50.5943 127.883 49.0236 127.883 47.211C127.883 45.3984 127.241 43.8024 125.952 42.4736C124.663 41.1485 123.117 40.4841 121.308 40.4841C119.499 40.4841 117.954 41.1485 116.668 42.4736C115.379 43.8024 114.736 45.3803 114.736 47.211C114.736 49.0417 115.379 50.5943 116.668 51.9195Z" fill="#FCFCFC"/>
<path d="M139.8 57.137H135.605L135.594 37.1982H140.129L148.325 50.5798V37.1982H152.247V57.1623H148.271L139.8 43.416V57.1334V57.137Z" fill="#FCFCFC"/>
</svg>
