<svg width="16" height="12" viewBox="0 0 16 12" fill="none" xmlns="http://www.w3.org/2000/svg">
<path d="M8 10.8369C2.76587 10.8369 0.170875 6.27391 0.063 6.07979C-0.021 5.92866 -0.021 5.74504 0.063 5.59391C0.170875 5.39991 2.76587 0.836914 8 0.836914C13.2341 0.836914 15.8291 5.39991 15.937 5.59404C16.021 5.74516 16.021 5.92879 15.937 6.07991C15.8291 6.27391 13.2341 10.8369 8 10.8369ZM1.08837 5.83616C1.68313 6.73754 4.01825 9.83691 8 9.83691C11.9944 9.83691 14.3191 6.74004 14.9116 5.83766C14.3169 4.93629 11.9818 1.83691 8 1.83691C4.00562 1.83691 1.68087 4.93379 1.08837 5.83616ZM8 8.83691C6.34575 8.83691 5 7.49116 5 5.83691C5 4.18266 6.34575 2.83691 8 2.83691C9.65425 2.83691 11 4.18266 11 5.83691C11 7.49116 9.65425 8.83691 8 8.83691ZM8 3.83691C6.89725 3.83691 6 4.73416 6 5.83691C6 6.93966 6.89725 7.83691 8 7.83691C9.10275 7.83691 10 6.93966 10 5.83691C10 4.73416 9.10275 3.83691 8 3.83691Z" fill="#6579A8"/>
<rect x="12.7622" y="11.2349" width="14.8527" height="0.71037" transform="rotate(-133.664 12.7622 11.2349)" fill="#6579A8"/>
</svg>
