<svg width="20" height="27" viewBox="0 0 20 27" fill="none" xmlns="http://www.w3.org/2000/svg">
<path d="M9.87581 13.1667C11.1779 13.1667 12.4507 12.7806 13.5333 12.0572C14.6159 11.3338 15.4597 10.3056 15.958 9.10267C16.4563 7.89972 16.5867 6.57603 16.3326 5.29899C16.0786 4.02195 15.4516 2.84891 14.5309 1.92822C13.6102 1.00752 12.4372 0.380519 11.1602 0.1265C9.88312 -0.12752 8.55943 0.00285247 7.35648 0.501129C6.15353 0.999406 5.12536 1.84321 4.40197 2.92583C3.67859 4.00846 3.29248 5.28128 3.29248 6.58334C3.29422 8.32881 3.98838 10.0023 5.22262 11.2365C6.45686 12.4708 8.13034 13.1649 9.87581 13.1667ZM9.87581 2.19445C10.7439 2.19445 11.5924 2.45185 12.3141 2.93411C13.0359 3.41637 13.5984 4.10182 13.9306 4.90378C14.2628 5.70575 14.3497 6.58821 14.1804 7.43957C14.011 8.29093 13.593 9.07295 12.9792 9.68675C12.3654 10.3005 11.5834 10.7185 10.732 10.8879C9.88068 11.0572 8.99822 10.9703 8.19626 10.6381C7.39429 10.306 6.70884 9.74342 6.22659 9.02167C5.74433 8.29992 5.48692 7.45138 5.48692 6.58334C5.48692 5.41933 5.94932 4.303 6.7724 3.47992C7.59548 2.65685 8.71181 2.19445 9.87581 2.19445Z" fill="#6C63FF"/>
<path d="M9.875 15.3611C7.25688 15.364 4.74682 16.4053 2.89553 18.2566C1.04424 20.1079 0.00290419 22.618 0 25.2361C0 25.5271 0.1156 25.8062 0.321369 26.012C0.527138 26.2177 0.806221 26.3333 1.09722 26.3333C1.38822 26.3333 1.66731 26.2177 1.87308 26.012C2.07884 25.8062 2.19444 25.5271 2.19444 25.2361C2.19444 23.1991 3.00364 21.2455 4.44403 19.8051C5.88441 18.3647 7.83799 17.5555 9.875 17.5555C11.912 17.5555 13.8656 18.3647 15.306 19.8051C16.7464 21.2455 17.5556 23.1991 17.5556 25.2361C17.5556 25.5271 17.6712 25.8062 17.8769 26.012C18.0827 26.2177 18.3618 26.3333 18.6528 26.3333C18.9438 26.3333 19.2229 26.2177 19.4286 26.012C19.6344 25.8062 19.75 25.5271 19.75 25.2361C19.7471 22.618 18.7058 20.1079 16.8545 18.2566C15.0032 16.4053 12.4931 15.364 9.875 15.3611Z" fill="#6C63FF"/>
</svg>
