<svg width="17" height="23" viewBox="0 0 17 23" fill="none" xmlns="http://www.w3.org/2000/svg">
<path d="M8.60645 13.0606C10.6316 13.1615 12.5537 13.9981 13.9951 15.417C15.5324 16.9305 16.398 18.9834 16.4004 21.125C16.4004 21.4111 16.2846 21.6854 16.0801 21.8868C15.8757 22.0878 15.5991 22.2002 15.3115 22.2002C15.0238 22.2002 14.7464 22.088 14.542 21.8868C14.3375 21.6854 14.2227 21.4111 14.2227 21.125C14.2227 19.5548 13.5889 18.0479 12.46 16.9366C11.3308 15.8251 9.7984 15.2002 8.2002 15.2002C6.602 15.2002 5.06958 15.8251 3.94043 16.9366C2.81151 18.0479 2.17773 19.5548 2.17773 21.125C2.17771 21.4111 2.06292 21.6854 1.8584 21.8868C1.65396 22.088 1.37663 22.2002 1.08887 22.2002C0.801307 22.2002 0.524671 22.0878 0.320312 21.8868C0.115785 21.6854 2.1298e-05 21.4111 0 21.125C0.00241337 18.9834 0.867974 16.9305 2.40527 15.417C3.94274 13.9036 6.02722 13.0522 8.2002 13.0498L8.60645 13.0606Z" fill="#465578"/>
<path fill-rule="evenodd" clip-rule="evenodd" d="M6.08398 1.21488C7.09462 0.802806 8.20661 0.694338 9.2793 0.904336C10.3521 1.11439 11.3383 1.6336 12.1123 2.39555C12.8862 3.15748 13.4132 4.12892 13.627 5.18656C13.8406 6.24428 13.7317 7.34082 13.3125 8.33695C12.8933 9.33307 12.1833 10.1838 11.2734 10.7823C10.3636 11.3807 9.29387 11.7002 8.2002 11.7002C6.73441 11.6988 5.32853 11.1246 4.29102 10.1036C3.25335 9.08211 2.66849 7.69596 2.66699 6.25004C2.66699 5.17145 2.9922 4.11705 3.60059 3.22074C4.20892 2.32461 5.07342 1.62698 6.08398 1.21488ZM8.2002 2.95023C7.3094 2.95032 6.45612 3.29891 5.82715 3.91801C5.19823 4.53712 4.84473 5.37587 4.84473 6.25004C4.84475 6.90185 5.04103 7.53956 5.40918 8.08207C5.77749 8.62464 6.30161 9.04872 6.91504 9.29887C7.52849 9.54899 8.20403 9.61387 8.85547 9.48637C9.50696 9.3588 10.1051 9.0438 10.5742 8.58207C11.0431 8.12044 11.3629 7.53296 11.4922 6.89359C11.6214 6.25411 11.5543 5.59091 11.3008 4.98832C11.0472 4.38579 10.6181 3.86985 10.0664 3.50688C9.5145 3.14387 8.86456 2.95023 8.2002 2.95023Z" fill="#465578"/>
</svg>
