<svg width="14" height="14" viewBox="0 0 14 14" fill="none" xmlns="http://www.w3.org/2000/svg">
<path d="M6.33889 12.6733C7.74665 12.6733 9.11414 12.2036 10.2248 11.3384L12.6648 13.7788C12.9778 14.0811 13.4765 14.0725 13.7788 13.7594C14.0737 13.454 14.0737 12.9699 13.7788 12.6645L11.3388 10.2241C13.4854 7.46047 12.9855 3.4797 10.2223 1.3328C7.45917 -0.814104 3.47911 -0.314165 1.33257 2.44948C-0.813965 5.21312 -0.314112 9.19389 2.44906 11.3408C3.56149 12.2051 4.93021 12.674 6.33889 12.6733ZM2.97226 2.97034C4.83162 1.11063 7.84623 1.11059 9.70563 2.97027C11.565 4.82995 11.5651 7.84508 9.70569 9.70479C7.84633 11.5645 4.83172 11.5645 2.97232 9.70486C1.11296 7.85873 1.10194 4.85452 2.94775 2.99485C2.95591 2.98666 2.96407 2.9785 2.97226 2.97034Z" fill="#6C63FF"/>
</svg>
