<svg width="11" height="14" viewBox="0 0 11 14" fill="none" xmlns="http://www.w3.org/2000/svg">
<path d="M5.4571 13.5L5.16505 13.3715C4.95385 13.2771 0 11.0595 0 6.99187V3.48018C3.20456e-05 3.13866 0.109051 2.8058 0.311611 2.52877C0.514171 2.25174 0.799999 2.04459 1.1286 1.93667L5.5 0.5L9.87195 1.93721C10.2006 2.04477 10.4866 2.25177 10.6891 2.52877C10.8916 2.80578 11.0004 3.1387 11 3.48018V6.99187C11 11.6229 5.97465 13.3275 5.7607 13.398L5.4571 13.5ZM5.5 2.21489L1.65 3.48018V6.99187C1.65 9.52462 4.5892 11.2476 5.54235 11.739C6.50045 11.3447 9.35 9.92486 9.35 6.99187V3.48018L5.5 2.21489Z" fill="#465578"/>
</svg>
